<mxfile host="app.diagrams.net" modified="2022-12-20T20:02:45.448Z" agent="5.0 (Windows NT 10.0; Win64; x64) AppleWebKit/537.36 (KHTML, like Gecko) Chrome/108.0.0.0 Safari/537.36" version="20.7.4" etag="Tk79MLzB04hQ1jI-449J" type="github">
  <diagram id="_fFkp4goY1LK54wYrsA7" name="Page-1">
    <mxGraphModel dx="755" dy="467" grid="0" gridSize="10" guides="1" tooltips="1" connect="1" arrows="1" fold="1" page="1" pageScale="1" pageWidth="850" pageHeight="1100" math="0" shadow="0">
      <root>
        <mxCell id="0" />
        <mxCell id="1" parent="0" />
        <mxCell id="918KZoXJqfHvGiBNyCYr-22" value="" style="edgeStyle=orthogonalEdgeStyle;rounded=0;orthogonalLoop=1;jettySize=auto;html=1;strokeColor=#0B4D6A;" edge="1" parent="1" source="918KZoXJqfHvGiBNyCYr-16" target="918KZoXJqfHvGiBNyCYr-18">
          <mxGeometry relative="1" as="geometry" />
        </mxCell>
        <mxCell id="918KZoXJqfHvGiBNyCYr-16" value="" style="whiteSpace=wrap;html=1;aspect=fixed;fontSize=13;fillColor=#fff2cc;strokeColor=#d6b656;" vertex="1" parent="1">
          <mxGeometry x="69" y="213" width="177" height="177" as="geometry" />
        </mxCell>
        <mxCell id="918KZoXJqfHvGiBNyCYr-27" style="edgeStyle=orthogonalEdgeStyle;rounded=0;orthogonalLoop=1;jettySize=auto;html=1;exitX=0.5;exitY=0;exitDx=0;exitDy=0;strokeColor=#0B4D6A;" edge="1" parent="1" source="918KZoXJqfHvGiBNyCYr-18">
          <mxGeometry relative="1" as="geometry">
            <mxPoint x="447" y="93.74276351928711" as="targetPoint" />
          </mxGeometry>
        </mxCell>
        <mxCell id="918KZoXJqfHvGiBNyCYr-18" value="" style="whiteSpace=wrap;html=1;aspect=fixed;fontSize=13;fillColor=#dae8fc;strokeColor=#6c8ebf;" vertex="1" parent="1">
          <mxGeometry x="358" y="213" width="177" height="177" as="geometry" />
        </mxCell>
        <mxCell id="918KZoXJqfHvGiBNyCYr-19" value="Explanandum" style="text;html=1;strokeColor=none;fillColor=none;align=center;verticalAlign=middle;whiteSpace=wrap;rounded=0;fontSize=13;" vertex="1" parent="1">
          <mxGeometry x="384.5" y="283" width="124" height="30" as="geometry" />
        </mxCell>
        <mxCell id="918KZoXJqfHvGiBNyCYr-20" value="Explanans" style="text;html=1;strokeColor=none;fillColor=none;align=center;verticalAlign=middle;whiteSpace=wrap;rounded=0;fontSize=13;" vertex="1" parent="1">
          <mxGeometry x="95.5" y="286.5" width="124" height="30" as="geometry" />
        </mxCell>
        <mxCell id="918KZoXJqfHvGiBNyCYr-28" value="Explanations" style="text;html=1;strokeColor=none;fillColor=none;align=center;verticalAlign=middle;whiteSpace=wrap;rounded=0;fontSize=13;" vertex="1" parent="1">
          <mxGeometry x="384.5" y="65" width="124" height="30" as="geometry" />
        </mxCell>
      </root>
    </mxGraphModel>
  </diagram>
</mxfile>
